<?xml version="1.0" standalone="no"?>
<!DOCTYPE svg PUBLIC "-//W3C//DTD SVG 20010904//EN"
 "http://www.w3.org/TR/2001/REC-SVG-20010904/DTD/svg10.dtd">
<svg version="1.0" xmlns="http://www.w3.org/2000/svg"
 width="460.000000pt" height="460.000000pt" viewBox="0 0 460.000000 460.000000"
 preserveAspectRatio="xMidYMid meet">
<metadata>
Created by potrace 1.14, written by Peter Selinger 2001-2017
</metadata>
<g transform="translate(0.000000,460.000000) scale(0.100000,-0.100000)"
fill="#000000" stroke="none">
<path d="M2 4553 c3 -45 5 -48 33 -49 16 -1 31 -6 33 -13 2 -6 10 -18 18 -25
8 -8 14 -18 14 -23 0 -4 7 -21 16 -38 9 -16 16 -42 16 -57 -1 -34 -1 -34 44
-5 31 20 35 26 30 56 -3 19 -11 38 -18 43 -8 6 0 8 24 6 34 -4 36 -2 23 12 -8
9 -12 20 -8 23 3 4 -1 7 -10 7 -9 0 -16 -5 -14 -12 3 -19 -31 -21 -49 -3 -13
12 -14 19 -4 30 10 12 9 15 -4 15 -15 0 -17 4 -20 38 -2 18 -53 42 -93 42
l-34 0 3 -47z m158 -153 c0 -5 -2 -10 -4 -10 -3 0 -8 5 -11 10 -3 6 -1 10 4
10 6 0 11 -4 11 -10z"/>
<path d="M207 4576 c3 -13 0 -33 -6 -45 -10 -17 -9 -21 4 -21 8 0 15 7 15 15
0 9 6 12 15 9 8 -4 17 1 21 10 3 9 12 16 20 16 19 0 18 -26 -2 -34 -9 -4 -14
-9 -11 -12 3 -3 14 0 24 7 18 10 25 6 64 -36 24 -26 45 -51 47 -56 2 -4 11 -6
20 -3 14 5 13 3 -2 -10 -16 -13 -22 -13 -29 -3 -7 9 -10 9 -14 0 -2 -7 -19
-13 -36 -13 -33 -1 -67 -20 -67 -38 0 -6 -6 -13 -12 -15 -10 -4 -10 -7 -1 -14
6 -5 13 -20 15 -33 2 -14 7 -30 11 -37 4 -6 4 -19 1 -28 -5 -13 -2 -16 11 -14
10 2 20 15 22 28 5 32 13 40 13 13 0 -12 4 -22 9 -22 16 0 7 -50 -9 -51 -8 -1
-4 -4 10 -8 20 -6 28 -3 38 16 7 13 17 21 21 19 5 -3 12 30 18 74 8 69 7 80
-7 81 -9 0 -7 3 6 9 26 10 107 90 99 98 -3 3 -5 2 -5 -3 0 -4 -9 0 -20 10 -16
14 -20 15 -20 4 0 -17 -34 -49 -52 -49 -6 0 -2 9 10 20 12 12 22 26 22 33 0 7
6 24 14 39 16 29 25 26 -114 48 -144 22 -148 22 -143 -4z"/>
<path d="M4345 4561 c-69 -18 -114 -46 -100 -60 6 -5 30 -11 55 -13 32 -2 44
-7 42 -17 -1 -7 4 -24 13 -37 8 -13 15 -28 15 -34 0 -17 -27 -11 -35 8 -6 14
-9 13 -22 -12 -11 -20 -12 -31 -4 -39 8 -8 11 -6 11 6 0 9 5 17 10 17 6 0 10
-4 10 -10 0 -5 9 -10 20 -10 11 0 20 4 20 9 0 5 21 7 47 5 34 -2 53 2 66 13
14 13 20 14 30 4 9 -9 9 -14 -3 -21 -12 -8 -12 -10 -1 -10 18 0 5 -72 -15 -83
-15 -8 -19 -36 -6 -38 57 -9 61 -8 65 19 3 23 4 22 6 -8 1 -19 6 -53 10 -75 6
-28 9 9 10 120 1 88 4 188 7 223 l6 62 -99 -1 c-57 -1 -123 -8 -158 -18z"/>
<path d="M3567 4550 c-9 -11 -24 -20 -32 -20 -8 0 -15 -8 -14 -17 0 -10 3 -13
6 -6 3 9 11 7 25 -7 20 -19 22 -19 37 -1 9 10 22 16 28 14 22 -8 28 29 8 43
-25 19 -38 18 -58 -6z"/>
<path d="M3865 4557 c-8 -19 -2 -31 13 -26 5 2 6 13 2 24 -7 19 -8 19 -15 2z"/>
<path d="M3948 4563 c6 -2 18 -2 25 0 6 3 1 5 -13 5 -14 0 -19 -2 -12 -5z"/>
<path d="M3982 4538 c2 -6 10 -14 16 -16 7 -2 10 2 6 12 -7 18 -28 22 -22 4z"/>
<path d="M4210 4509 c7 -11 14 -18 17 -15 8 8 -5 36 -17 36 -7 0 -7 -6 0 -21z"/>
<path d="M551 4474 c0 -11 3 -14 6 -6 3 7 2 16 -1 19 -3 4 -6 -2 -5 -13z"/>
<path d="M1758 4439 c-7 -5 -20 -6 -30 -3 -9 2 -19 0 -23 -6 -3 -5 -21 -10
-38 -10 -18 0 -67 -5 -109 -12 -57 -8 -79 -16 -83 -28 -3 -9 -17 -28 -31 -41
-19 -17 -27 -20 -33 -11 -4 7 -22 11 -41 10 -25 -2 -35 -8 -42 -29 -6 -18 -19
-29 -37 -32 -29 -6 -96 -56 -87 -65 8 -8 -61 -42 -86 -42 -28 0 -42 -10 -51
-33 -4 -9 -10 -17 -14 -16 -27 5 -49 -10 -132 -91 -51 -49 -96 -90 -100 -90
-4 0 -13 -12 -20 -26 -7 -17 -17 -24 -26 -20 -17 6 -21 -19 -5 -29 12 -7 5
-45 -17 -93 -8 -19 -19 -66 -23 -105 -13 -106 -20 -130 -47 -152 -22 -18 -23
-23 -13 -50 6 -16 9 -44 5 -61 -3 -17 -1 -53 5 -80 8 -37 7 -73 -4 -149 -25
-163 -34 -199 -59 -218 l-22 -18 22 -16 c30 -20 29 -29 -5 -39 l-27 -8 35 -5
c29 -5 36 -11 38 -33 3 -23 0 -27 -15 -22 -17 5 -17 5 0 -9 21 -17 22 -27 3
-27 -7 0 -19 -7 -26 -15 -11 -13 -8 -15 14 -15 14 0 26 -4 26 -10 0 -5 -11
-10 -25 -10 -14 0 -25 -4 -25 -10 0 -5 6 -10 14 -10 24 0 66 -47 59 -66 -4
-12 -3 -15 5 -10 7 4 13 1 14 -6 2 -21 5 -32 11 -48 14 -35 27 -97 27 -129 0
-19 4 -48 9 -65 31 -105 39 -140 34 -149 -3 -6 -2 -7 4 -4 13 8 38 -50 59
-138 9 -38 21 -75 26 -82 5 -6 13 -33 17 -60 5 -26 26 -113 46 -192 31 -118
36 -150 28 -172 -8 -20 -8 -28 0 -26 13 2 39 -125 34 -171 -1 -17 -1 -32 3
-32 9 0 2 -369 -9 -465 -7 -59 -7 -91 -1 -93 16 -6 11 -23 -11 -41 -20 -16
-21 -20 -8 -54 10 -28 10 -42 1 -61 -8 -18 -8 -27 -1 -32 7 -4 8 -23 5 -49 -5
-31 -3 -45 9 -55 11 -9 12 -16 4 -26 -8 -10 -3 -20 20 -43 17 -17 31 -37 31
-46 0 -28 61 -95 86 -95 13 0 28 -8 33 -19 8 -14 27 -20 93 -25 46 -4 98 -7
116 -7 18 1 40 -6 48 -14 9 -8 12 -15 8 -15 -4 0 10 -11 30 -25 20 -14 43 -25
50 -25 14 0 52 49 48 63 -1 4 7 7 18 7 13 0 18 5 14 15 -4 8 -1 15 4 15 6 0
12 -15 14 -32 l3 -33 86 -1 c47 -1 111 -9 142 -18 43 -13 84 -15 174 -12 65 2
119 5 120 5 1 1 0 9 -4 19 -5 14 -2 13 15 -4 18 -19 27 -21 64 -14 24 5 51 12
61 16 12 4 26 -1 41 -15 17 -16 30 -20 54 -15 17 3 33 12 36 20 3 8 12 14 20
14 10 0 13 -6 10 -15 -4 -9 0 -15 10 -15 9 0 16 -4 16 -10 0 -21 27 -9 37 17
l12 28 -6 -30 -6 -30 36 40 c20 22 36 43 37 48 0 4 19 7 43 8 23 0 36 3 30 6
-7 2 -13 14 -13 24 0 12 -4 17 -11 13 -6 -3 -3 8 6 25 9 18 20 29 25 26 6 -3
18 -1 27 4 16 9 15 10 -5 11 -23 0 -24 3 -18 48 3 26 7 66 8 89 1 23 4 40 8
38 3 -2 6 15 6 38 1 31 8 46 28 64 35 30 75 40 87 22 7 -11 11 -11 17 -2 10
15 178 13 202 -2 8 -6 24 -10 35 -11 11 -1 65 -11 120 -23 95 -20 102 -21 166
-5 55 13 74 24 109 60 24 24 55 47 69 51 40 9 41 11 27 51 -19 54 -10 222 12
222 14 0 14 1 0 12 -8 7 -20 27 -25 43 -12 38 15 105 52 129 13 9 31 29 39 44
12 23 12 33 1 66 -9 26 -11 45 -5 55 7 11 9 12 10 3 0 -8 12 1 27 20 15 18 32
36 37 39 5 4 2 28 -8 55 -9 26 -16 57 -16 69 0 26 18 45 37 38 14 -6 57 36 47
46 -3 3 -10 -2 -15 -12 -11 -18 -29 -23 -29 -8 0 14 60 46 125 67 72 22 123
67 126 109 5 73 -2 94 -48 155 -27 35 -52 70 -58 79 -5 9 -22 32 -37 51 -14
19 -46 76 -70 125 -41 86 -43 94 -42 180 1 121 6 137 49 148 20 5 20 5 0 12
-28 9 -47 41 -57 95 -4 25 -10 59 -14 76 -5 29 -3 32 28 39 l33 9 -32 3 c-29
4 -56 33 -30 33 8 0 7 4 -3 10 -13 9 -13 12 1 23 13 10 14 15 3 24 -10 10 -14
10 -17 0 -3 -7 -6 -5 -6 5 -1 10 8 18 22 21 21 3 21 4 -5 15 -37 15 -35 23 4
15 22 -4 29 -3 24 5 -4 7 -14 12 -22 12 -8 0 -14 5 -14 11 0 5 -4 8 -9 5 -5
-3 -13 31 -19 76 -9 72 -8 84 6 96 9 7 11 11 4 7 -19 -10 -34 43 -26 90 4 22
7 74 5 116 -2 63 2 82 20 113 16 28 19 40 10 49 -6 6 -11 23 -11 37 0 41 -36
138 -64 171 -13 16 -34 60 -47 99 -12 38 -25 67 -30 64 -9 -5 -139 123 -139
137 0 5 -10 14 -22 19 -52 23 -81 47 -72 62 3 4 -4 8 -15 8 -11 0 -35 12 -53
28 -18 15 -44 33 -58 39 -14 6 -59 27 -100 46 -73 34 -173 64 -237 72 -71 9
-114 27 -145 60 -26 29 -38 35 -72 35 -23 0 -58 8 -79 19 -50 25 -67 30 -181
45 -54 8 -101 19 -105 24 -8 13 -434 23 -453 11z m125 -12 c8 -21 -5 -33 -39
-40 -41 -8 -47 -1 -20 28 24 26 51 32 59 12z m27 -58 c0 -5 5 -7 10 -4 6 3 10
3 10 -2 0 -11 -20 -40 -20 -29 0 5 -7 3 -15 -4 -22 -18 -28 -7 -14 24 12 26
29 35 29 15z m760 -497 c0 -5 11 -14 25 -20 l25 -12 -20 -32 c-11 -18 -20 -46
-20 -61 0 -23 -4 -28 -22 -25 -11 2 -23 -2 -25 -8 -2 -7 5 -10 21 -7 20 4 28
0 35 -20 6 -14 19 -27 32 -29 14 -2 26 -16 36 -41 15 -37 15 -40 -13 -95 -21
-44 -27 -70 -27 -114 1 -48 -1 -58 -15 -58 -9 0 -26 -7 -36 -15 -18 -14 -22
-13 -47 11 -16 15 -32 23 -39 19 -7 -4 -17 -1 -22 6 -7 11 -11 11 -15 2 -2 -7
-9 -13 -14 -13 -16 0 -9 33 12 56 25 26 18 44 -17 44 -41 0 -26 25 23 38 35
10 48 10 53 1 6 -8 9 -8 15 1 12 20 -16 60 -42 60 -13 0 -23 5 -23 10 0 6 5
10 10 10 6 0 10 11 10 25 0 14 -4 25 -9 25 -6 0 -24 15 -41 33 -17 17 -28 25
-25 16 4 -11 -1 -19 -17 -24 -26 -8 -24 -8 -58 -3 -21 2 -27 11 -35 53 -11 51
-3 81 18 68 6 -4 8 -1 5 8 -21 50 -21 52 -10 45 6 -4 20 -2 31 4 26 13 50 3
62 -27 5 -13 13 -22 18 -19 11 7 2 48 -13 58 -7 5 -8 10 -1 17 7 7 19 6 37 -3
15 -8 29 -12 31 -10 2 3 7 -13 11 -36 7 -48 19 -51 36 -10 7 16 16 27 21 24 5
-3 9 9 9 25 0 21 5 31 15 31 8 0 15 -4 15 -8z m-341 -101 c20 -13 6 -62 -15
-54 -10 4 -17 -2 -21 -16 -7 -26 -39 -27 -71 -3 -30 24 -20 49 20 50 17 0 38
8 47 16 18 18 21 19 40 7z m-454 -125 c22 -37 24 -48 15 -72 -6 -16 -20 -37
-31 -47 -20 -18 -21 -18 -58 6 -27 18 -42 22 -54 15 -31 -17 -47 13 -31 56 7
19 34 22 34 4 0 -9 3 -9 9 1 7 11 17 12 52 3 23 -6 46 -9 51 -6 13 9 9 34 -6
34 -16 0 -25 19 -18 38 6 18 9 16 37 -32z m85 20 c0 -7 7 -19 15 -26 9 -7 13
-21 9 -35 -4 -17 1 -25 28 -38 31 -16 32 -17 8 -18 -14 -1 -29 -1 -33 0 -25 4
-54 3 -69 -3 -13 -6 -15 -2 -13 21 9 72 16 97 28 105 18 12 27 10 27 -6z m350
-36 c0 -5 -4 -10 -10 -10 -5 0 -10 5 -10 10 0 6 5 10 10 10 6 0 10 -4 10 -10z
m130 1 c0 -6 -4 -13 -10 -16 -5 -3 -10 1 -10 9 0 9 5 16 10 16 6 0 10 -4 10
-9z m-754 -26 c-9 -9 -16 -13 -16 -8 0 12 22 34 28 28 2 -2 -3 -11 -12 -20z
m-6 -99 c5 -13 6 -33 3 -45 -3 -12 -1 -21 6 -21 6 0 11 -7 11 -15 0 -8 6 -15
14 -15 23 0 29 -33 10 -47 -10 -7 -24 -13 -31 -13 -7 0 -13 -7 -13 -15 0 -8
-9 -15 -20 -15 -22 0 -27 29 -8 48 6 6 9 14 6 18 -9 8 -86 -17 -99 -33 -6 -7
-17 -13 -24 -13 -8 0 -16 -6 -18 -12 -3 -7 -6 10 -6 37 -1 63 9 78 50 81 19 1
35 7 37 13 2 6 15 11 28 11 28 0 31 8 7 25 -19 14 -9 35 18 35 11 0 23 -10 29
-24z m697 -136 c25 -53 38 -93 32 -100 -6 -8 -32 -12 -64 -11 -16 0 -32 -4
-35 -10 -4 -6 -23 -3 -51 9 -43 18 -43 19 -16 26 27 6 38 36 13 36 -7 0 -19 6
-25 14 -10 12 -9 20 5 41 14 21 24 26 52 23 22 -2 37 2 40 10 2 6 0 12 -5 12
-5 0 -9 8 -10 19 -1 17 0 17 21 -3 12 -11 32 -41 43 -66z m-489 48 c3 -13 -3
-18 -22 -18 -20 0 -26 5 -26 21 0 15 5 20 22 17 13 -2 24 -11 26 -20z m-8 -37
c0 -5 -7 -12 -16 -15 -22 -9 -24 -8 -24 9 0 8 9 15 20 15 11 0 20 -4 20 -9z
m614 -31 c38 -16 46 -17 46 -5 0 21 17 18 23 -4 3 -12 -1 -18 -12 -17 -8 0
-16 -5 -17 -11 -1 -7 -2 -17 -3 -23 0 -5 -10 -10 -21 -10 -13 0 -20 -7 -20
-19 0 -25 -15 -34 -41 -26 -19 6 -19 8 -4 25 17 19 14 51 -7 77 -8 10 -4 33 7
33 2 0 24 -9 49 -20z m33 -116 c-3 -3 -12 -4 -19 -1 -8 3 -5 6 6 6 11 1 17 -2
13 -5z m43 -9 c-7 -9 -15 -13 -17 -11 -7 7 7 26 19 26 6 0 6 -6 -2 -15z"/>
<path d="M2428 3803 c7 -3 16 -2 19 1 4 3 -2 6 -13 5 -11 0 -14 -3 -6 -6z"/>
<path d="M2470 3735 c0 -15 4 -24 10 -20 6 3 10 1 10 -6 0 -10 3 -10 12 -1 9
9 7 16 -10 32 l-22 21 0 -26z"/>
<path d="M2550 3650 c0 -5 5 -10 11 -10 5 0 7 5 4 10 -3 6 -8 10 -11 10 -2 0
-4 -4 -4 -10z"/>
<path d="M2630 3613 c0 -12 5 -25 11 -28 16 -11 17 -2 2 25 -12 24 -13 24 -13
3z"/>
<path d="M2625 3391 c-10 -17 12 -21 25 -6 10 12 10 15 -3 15 -9 0 -18 -4 -22
-9z"/>
<path d="M2305 3280 c3 -5 8 -10 11 -10 2 0 4 5 4 10 0 6 -5 10 -11 10 -5 0
-7 -4 -4 -10z"/>
<path d="M240 4390 c0 -5 5 -10 11 -10 5 0 7 5 4 10 -3 6 -8 10 -11 10 -2 0
-4 -4 -4 -10z"/>
<path d="M122 4277 c-14 -29 -23 -99 -12 -92 4 3 11 23 15 45 4 22 14 44 22
49 13 7 13 9 0 14 -9 3 -19 -3 -25 -16z"/>
<path d="M4405 4250 c-4 -6 7 -10 24 -10 17 0 31 5 31 10 0 6 -11 10 -24 10
-14 0 -28 -4 -31 -10z"/>
<path d="M73 4150 c-3 -11 -9 -20 -13 -20 -4 0 -17 -18 -29 -40 -17 -32 -19
-45 -10 -61 7 -14 7 -30 1 -48 -9 -25 -8 -27 17 -25 14 1 29 2 34 3 4 0 1 14
-8 31 -17 34 -20 70 -4 70 22 0 39 30 39 69 0 43 -18 56 -27 21z"/>
<path d="M4581 4104 c0 -11 3 -14 6 -6 3 7 2 16 -1 19 -3 4 -6 -2 -5 -13z"/>
<path d="M794 3990 c3 -14 6 -29 6 -33 0 -5 10 -7 22 -5 26 4 34 38 9 38 -9 0
-23 6 -30 13 -11 10 -13 8 -7 -13z"/>
<path d="M293 3847 c-3 -5 1 -13 8 -18 12 -7 28 5 29 22 0 9 -30 6 -37 -4z"/>
<path d="M85 3746 c-15 -16 -19 -32 -17 -64 3 -43 14 -51 42 -31 11 7 12 12 3
15 -7 3 -9 12 -6 20 3 8 0 14 -6 14 -19 0 -12 27 9 33 13 3 18 10 14 21 -8 20
-14 19 -39 -8z"/>
<path d="M153 3743 c1 -18 6 -28 10 -24 4 4 3 18 -2 32 -9 23 -9 22 -8 -8z"/>
<path d="M140 3690 c0 -5 7 -7 15 -4 8 4 15 8 15 10 0 2 -7 4 -15 4 -8 0 -15
-4 -15 -10z"/>
<path d="M3700 2451 c0 -5 7 -12 16 -15 24 -9 27 -7 10 9 -17 17 -26 19 -26 6z"/>
<path d="M2670 563 c0 -4 5 -15 10 -23 8 -13 10 -13 10 2 0 9 -4 20 -10 23 -5
3 -10 3 -10 -2z"/>
</g>
</svg>
